<svg id="Wordmark" xmlns="http://www.w3.org/2000/svg" viewBox="0 0 2174.57 431.49">
    <defs>
        <style>.cls-1{fill:#212529;}.cls-2{fill:#16d936;}</style>
    </defs>
    <g id="Moneytree_Logo_Black" data-name="Moneytree Logo Black">
        <polygon class="cls-1"
                 points="783.11 363.28 783.11 195.43 717.04 363.28 671.33 363.28 605.26 197.57 605.26 363.28 551.69 363.28 551.69 110.08 625.26 110.08 694.9 281.14 760.97 110.08 838.46 110.08 838.46 363.28 783.11 363.28"/>
        <path class="cls-1"
              d="M1040.05,274.36c0,55-41.07,94.28-94.29,94.28-52.85,0-94.28-39.29-94.28-94.28s41.43-93.93,94.28-93.93c53.22,0,94.29,38.93,94.29,93.93m-54.29,0c0-30-19.28-43.93-40-43.93-20.35,0-40,13.93-40,43.93,0,29.64,19.65,44.28,40,44.28,20.72,0,40-14.28,40-44.28"/>
        <path class="cls-1"
              d="M1107.35,363.28h-54.28V185.79h52.49v20.36c9.65-16.79,31.43-25,49.64-25,44.64,0,64.64,31.78,64.64,70.71V363.28h-54.28V261.14c0-17.5-9.28-30.71-28.92-30.71-17.86,0-29.29,13.21-29.29,31.07Z"/>
        <path class="cls-1"
              d="M1407.16,312.21c-8.57,30.71-36.78,56.43-81.78,56.43-48.93,0-92.49-35-92.49-94.64,0-57.14,42.49-93.57,88.56-93.57,55,0,88.92,33.93,88.92,91.07,0,7.5-.71,15.71-1.06,16.78H1285.72c1.07,20,19.28,34.29,40.35,34.29,19.65,0,30.72-9.29,35.72-23.21Zm-49.28-58.92c-.72-13.57-10-30-35.71-30-22.86,0-34.29,16.78-35.36,30Z"/>
        <path class="cls-1"
              d="M1806.56,239.36a73.19,73.19,0,0,0-17.14-1.79c-21.78,0-41.43,12.86-41.43,48.21v77.5h-54.28V185.79h52.5v23.93c9.28-20,31.78-25.72,46.07-25.72a53.36,53.36,0,0,1,14.28,1.79Z"/>
        <path class="cls-1"
              d="M1980.84,312.21c-8.57,30.71-36.79,56.43-81.78,56.43-48.93,0-92.5-35-92.5-94.64,0-57.14,42.5-93.57,88.57-93.57,55,0,88.92,33.93,88.92,91.07,0,7.5-.71,15.71-1.07,16.78H1859.42c1.07,20,19.28,34.29,40.35,34.29,19.64,0,30.71-9.29,35.71-23.21Zm-49.28-58.92c-.72-13.57-10-30-35.72-30-22.85,0-34.28,16.78-35.35,30Z"/>
        <path class="cls-1"
              d="M2171.35,312.21c-8.57,30.71-36.78,56.43-81.78,56.43-48.93,0-92.5-35-92.5-94.64,0-57.14,42.5-93.57,88.57-93.57,55,0,88.93,33.93,88.93,91.07,0,7.5-.72,15.71-1.08,16.78H2049.93c1.07,20,19.28,34.29,40.35,34.29,19.64,0,30.71-9.29,35.72-23.21Zm-49.28-58.92c-.72-13.57-10-30-35.71-30-22.86,0-34.29,16.78-35.36,30Z"/>
        <path class="cls-1"
              d="M2155.68,359.33h0a9.3,9.3,0,1,1,18.6-.05v.05a9.3,9.3,0,0,1-18.6,0m17.74,0a8.48,8.48,0,1,0,0,.15v-.15m-11.86-4.81h4.06c1.87,0,3.42.91,3.42,2.78a2.87,2.87,0,0,1-2.46,2.78l2.84,3.79h-1.26l-2.72-3.63h-2.84v3.63h-1Zm3.9,4.81c1.55,0,2.57-.75,2.57-2s-1-1.92-2.52-1.92h-2.94v3.9Z"/>
        <path class="cls-1"
              d="M1680.69,233.29v-47.5h-34.64V134h-48.57c0,31.39-17,51.78-44.08,51.78h-13.53l-39.29,95-43.21-95h-60.71l74.64,153.56-40.36,92.14h57.15l88.15-198.2h16.24v58c0,42.75,28.9,73.93,67.8,81.38l19-43.36c-21.13-7.66-33.25-14.82-33.25-43.94V233.29Z"/>
    </g>
    <path class="cls-2"
          d="M312.4,174.57c-31.13,44.1-43.83,95.4-42.32,149.1,52.73,0,104.06-13.75,140.31-54.74,50.82-57.32,52.33-128.6,52.33-159.23C395.83,103.75,340.16,134.84,312.4,174.57Z"/>
    <path class="cls-2"
          d="M167.53,55.41C126.33,18.9,70.12-.16,0,0-1.29,68.17-.16,165.91,49.76,224.23c29.4,34.41,69,49.43,110.66,65.1V431.42H248.3L248,323.74C248,138,217.45,99.51,167.53,55.41Z"/>
</svg>
